<svg id="visual" viewBox="0 0 1920 1080" width="1920" height="1080" xmlns="http://www.w3.org/2000/svg" xmlns:xlink="http://www.w3.org/1999/xlink" version="1.1"><rect x="0" y="0" width="1920" height="1080" fill="#FFFFFF"></rect><defs><linearGradient id="grad1_0" x1="43.8%" y1="0%" x2="100%" y2="100%"><stop offset="14.444444444444446%" stop-color="#ffffff" stop-opacity="1"></stop><stop offset="85.55555555555554%" stop-color="#ffffff" stop-opacity="1"></stop></linearGradient></defs><defs><linearGradient id="grad2_0" x1="0%" y1="0%" x2="56.3%" y2="100%"><stop offset="14.444444444444446%" stop-color="#ffffff" stop-opacity="1"></stop><stop offset="85.55555555555554%" stop-color="#ffffff" stop-opacity="1"></stop></linearGradient></defs><g transform="translate(1920, 0)"><path d="M0 972C-119.1 923.3 -238.2 874.7 -337.9 815.8C-437.6 756.9 -517.8 687.8 -617.3 617.3C-716.8 546.8 -835.7 475.1 -898 372C-960.3 268.9 -966.2 134.4 -972 0L0 0Z" fill="#617a4f"></path></g><g transform="translate(0, 1080)"><path d="M0 -972C126.3 -933.1 252.6 -894.3 341.4 -824.1C430.1 -753.9 481.2 -652.4 579.8 -579.8C678.5 -507.3 824.7 -463.8 898 -372C971.3 -280.2 971.7 -140.1 972 0L0 0Z" fill="#617a4f"></path></g></svg>