<svg id="visual" viewBox="0 0 900 600" width="900" height="600" xmlns="http://www.w3.org/2000/svg" xmlns:xlink="http://www.w3.org/1999/xlink" version="1.1"><g stroke-width="1" stroke-linejoin="bevel"><path d="M482 268L498 220L365 196Z" fill="#1c3b1c" stroke="#1c3b1c"></path><path d="M365 196L381 323L482 268Z" fill="#264323" stroke="#264323"></path><path d="M365 196L316 292L381 323Z" fill="#395531" stroke="#395531"></path><path d="M284 395L395 362L381 323Z" fill="#577147" stroke="#577147"></path><path d="M381 323L395 362L482 268Z" fill="#425e38" stroke="#425e38"></path><path d="M365 196L285 222L316 292Z" fill="#617a4f" stroke="#617a4f"></path><path d="M367 74L307 134L365 196Z" fill="#2f4c2a" stroke="#2f4c2a"></path><path d="M365 196L307 134L285 222Z" fill="#2f4c2a" stroke="#2f4c2a"></path><path d="M602 319L573 176L498 220Z" fill="#617a4f" stroke="#617a4f"></path><path d="M498 220L518 90L365 196Z" fill="#1c3b1c" stroke="#1c3b1c"></path><path d="M602 319L498 220L482 268Z" fill="#092a0e" stroke="#092a0e"></path><path d="M573 176L518 90L498 220Z" fill="#395531" stroke="#395531"></path><path d="M518 90L367 74L365 196Z" fill="#012203" stroke="#012203"></path><path d="M395 362L462 397L482 268Z" fill="#577147" stroke="#577147"></path><path d="M462 397L602 319L482 268Z" fill="#577147" stroke="#577147"></path><path d="M573 176L577 66L518 90Z" fill="#2f4c2a" stroke="#2f4c2a"></path><path d="M489 0L384 0L367 74Z" fill="#425e38" stroke="#425e38"></path><path d="M722 136L577 66L573 176Z" fill="#1c3b1c" stroke="#1c3b1c"></path><path d="M316 292L284 395L381 323Z" fill="#395531" stroke="#395531"></path><path d="M395 362L388 463L462 397Z" fill="#264323" stroke="#264323"></path><path d="M185 302L284 395L316 292Z" fill="#133215" stroke="#133215"></path><path d="M489 0L367 74L518 90Z" fill="#425e38" stroke="#425e38"></path><path d="M367 74L309 0L307 134Z" fill="#425e38" stroke="#425e38"></path><path d="M577 66L489 0L518 90Z" fill="#012203" stroke="#012203"></path><path d="M284 395L388 463L395 362Z" fill="#425e38" stroke="#425e38"></path><path d="M462 397L603 419L602 319Z" fill="#4c6740" stroke="#4c6740"></path><path d="M307 134L183 202L285 222Z" fill="#425e38" stroke="#425e38"></path><path d="M285 222L185 302L316 292Z" fill="#4c6740" stroke="#4c6740"></path><path d="M174 124L183 202L307 134Z" fill="#133215" stroke="#133215"></path><path d="M384 0L309 0L367 74Z" fill="#617a4f" stroke="#617a4f"></path><path d="M183 202L185 302L285 222Z" fill="#425e38" stroke="#425e38"></path><path d="M582 508L603 419L462 397Z" fill="#2f4c2a" stroke="#2f4c2a"></path><path d="M709 264L692 238L602 319Z" fill="#4c6740" stroke="#4c6740"></path><path d="M602 319L692 238L573 176Z" fill="#4c6740" stroke="#4c6740"></path><path d="M309 0L174 124L307 134Z" fill="#617a4f" stroke="#617a4f"></path><path d="M183 202L129 317L185 302Z" fill="#012203" stroke="#012203"></path><path d="M736 375L709 264L602 319Z" fill="#2f4c2a" stroke="#2f4c2a"></path><path d="M703 0L603 0L577 66Z" fill="#4c6740" stroke="#4c6740"></path><path d="M577 66L603 0L489 0Z" fill="#092a0e" stroke="#092a0e"></path><path d="M722 136L573 176L692 238Z" fill="#395531" stroke="#395531"></path><path d="M807 173L722 136L692 238Z" fill="#1c3b1c" stroke="#1c3b1c"></path><path d="M124 379L185 409L185 302Z" fill="#577147" stroke="#577147"></path><path d="M185 302L185 409L284 395Z" fill="#577147" stroke="#577147"></path><path d="M284 395L274 513L388 463Z" fill="#133215" stroke="#133215"></path><path d="M64 238L129 317L183 202Z" fill="#395531" stroke="#395531"></path><path d="M363 600L491 533L388 463Z" fill="#425e38" stroke="#425e38"></path><path d="M388 463L491 533L462 397Z" fill="#092a0e" stroke="#092a0e"></path><path d="M491 533L582 508L462 397Z" fill="#425e38" stroke="#425e38"></path><path d="M603 419L736 375L602 319Z" fill="#2f4c2a" stroke="#2f4c2a"></path><path d="M185 409L274 513L284 395Z" fill="#2f4c2a" stroke="#2f4c2a"></path><path d="M129 317L124 379L185 302Z" fill="#133215" stroke="#133215"></path><path d="M185 409L207 525L274 513Z" fill="#425e38" stroke="#425e38"></path><path d="M700 486L736 375L603 419Z" fill="#1c3b1c" stroke="#1c3b1c"></path><path d="M709 264L807 173L692 238Z" fill="#092a0e" stroke="#092a0e"></path><path d="M309 0L169 0L174 124Z" fill="#577147" stroke="#577147"></path><path d="M174 124L83 119L183 202Z" fill="#577147" stroke="#577147"></path><path d="M736 375L765 326L709 264Z" fill="#1c3b1c" stroke="#1c3b1c"></path><path d="M782 81L703 0L722 136Z" fill="#264323" stroke="#264323"></path><path d="M722 136L703 0L577 66Z" fill="#2f4c2a" stroke="#2f4c2a"></path><path d="M169 0L83 119L174 124Z" fill="#264323" stroke="#264323"></path><path d="M129 317L0 284L124 379Z" fill="#2f4c2a" stroke="#2f4c2a"></path><path d="M83 119L64 238L183 202Z" fill="#2f4c2a" stroke="#2f4c2a"></path><path d="M99 464L207 525L185 409Z" fill="#2f4c2a" stroke="#2f4c2a"></path><path d="M274 513L363 600L388 463Z" fill="#4c6740" stroke="#4c6740"></path><path d="M736 375L787 397L765 326Z" fill="#092a0e" stroke="#092a0e"></path><path d="M582 508L700 486L603 419Z" fill="#577147" stroke="#577147"></path><path d="M605 600L700 486L582 508Z" fill="#395531" stroke="#395531"></path><path d="M807 173L782 81L722 136Z" fill="#2f4c2a" stroke="#2f4c2a"></path><path d="M765 326L807 173L709 264Z" fill="#425e38" stroke="#425e38"></path><path d="M292 600L363 600L274 513Z" fill="#425e38" stroke="#425e38"></path><path d="M491 533L521 600L582 508Z" fill="#264323" stroke="#264323"></path><path d="M363 600L521 600L491 533Z" fill="#577147" stroke="#577147"></path><path d="M787 463L787 397L736 375Z" fill="#617a4f" stroke="#617a4f"></path><path d="M765 326L900 260L807 173Z" fill="#1c3b1c" stroke="#1c3b1c"></path><path d="M208 600L292 600L274 513Z" fill="#425e38" stroke="#425e38"></path><path d="M169 0L91 0L83 119Z" fill="#1c3b1c" stroke="#1c3b1c"></path><path d="M83 119L0 230L64 238Z" fill="#1c3b1c" stroke="#1c3b1c"></path><path d="M0 419L99 464L124 379Z" fill="#264323" stroke="#264323"></path><path d="M124 379L99 464L185 409Z" fill="#133215" stroke="#133215"></path><path d="M207 525L208 600L274 513Z" fill="#425e38" stroke="#425e38"></path><path d="M900 0L773 0L782 81Z" fill="#577147" stroke="#577147"></path><path d="M782 81L773 0L703 0Z" fill="#133215" stroke="#133215"></path><path d="M521 600L605 600L582 508Z" fill="#2f4c2a" stroke="#2f4c2a"></path><path d="M700 486L787 463L736 375Z" fill="#264323" stroke="#264323"></path><path d="M0 83L0 230L83 119Z" fill="#1c3b1c" stroke="#1c3b1c"></path><path d="M64 238L0 284L129 317Z" fill="#133215" stroke="#133215"></path><path d="M734 600L787 463L700 486Z" fill="#395531" stroke="#395531"></path><path d="M787 397L900 260L765 326Z" fill="#264323" stroke="#264323"></path><path d="M0 230L0 284L64 238Z" fill="#395531" stroke="#395531"></path><path d="M86 600L208 600L207 525Z" fill="#133215" stroke="#133215"></path><path d="M91 0L0 83L83 119Z" fill="#577147" stroke="#577147"></path><path d="M0 284L0 419L124 379Z" fill="#395531" stroke="#395531"></path><path d="M99 464L86 600L207 525Z" fill="#395531" stroke="#395531"></path><path d="M900 439L900 260L787 397Z" fill="#425e38" stroke="#425e38"></path><path d="M807 173L900 71L782 81Z" fill="#395531" stroke="#395531"></path><path d="M900 260L900 168L807 173Z" fill="#1c3b1c" stroke="#1c3b1c"></path><path d="M91 0L0 0L0 83Z" fill="#425e38" stroke="#425e38"></path><path d="M605 600L734 600L700 486Z" fill="#4c6740" stroke="#4c6740"></path><path d="M787 463L900 439L787 397Z" fill="#133215" stroke="#133215"></path><path d="M900 168L900 71L807 173Z" fill="#264323" stroke="#264323"></path><path d="M0 419L0 476L99 464Z" fill="#4c6740" stroke="#4c6740"></path><path d="M0 476L86 600L99 464Z" fill="#012203" stroke="#012203"></path><path d="M900 498L900 439L787 463Z" fill="#1c3b1c" stroke="#1c3b1c"></path><path d="M900 71L900 0L782 81Z" fill="#012203" stroke="#012203"></path><path d="M825 600L900 498L787 463Z" fill="#2f4c2a" stroke="#2f4c2a"></path><path d="M734 600L825 600L787 463Z" fill="#1c3b1c" stroke="#1c3b1c"></path><path d="M0 476L0 600L86 600Z" fill="#012203" stroke="#012203"></path><path d="M825 600L900 600L900 498Z" fill="#577147" stroke="#577147"></path></g></svg>