<svg id="visual" viewBox="0 0 1920 1080" width="1920" height="1080" xmlns="http://www.w3.org/2000/svg" xmlns:xlink="http://www.w3.org/1999/xlink" version="1.1"><rect x="0" y="0" width="1920" height="1080" fill="#FFFFFF"></rect><path d="M0 781L45.7 767C91.3 753 182.7 725 274.2 736.5C365.7 748 457.3 799 548.8 823.7C640.3 848.3 731.7 846.7 823 837.7C914.3 828.7 1005.7 812.3 1097 809.8C1188.3 807.3 1279.7 818.7 1371.2 823.5C1462.7 828.3 1554.3 826.7 1645.8 808.5C1737.3 790.3 1828.7 755.7 1874.3 738.3L1920 721L1920 1081L1874.3 1081C1828.7 1081 1737.3 1081 1645.8 1081C1554.3 1081 1462.7 1081 1371.2 1081C1279.7 1081 1188.3 1081 1097 1081C1005.7 1081 914.3 1081 823 1081C731.7 1081 640.3 1081 548.8 1081C457.3 1081 365.7 1081 274.2 1081C182.7 1081 91.3 1081 45.7 1081L0 1081Z" fill="#617a4f" stroke-linecap="round" stroke-linejoin="miter"></path></svg>